<?xml version="1.0" encoding="UTF-8"?>
<!DOCTYPE svg PUBLIC "-//W3C//DTD SVG 1.1//EN" "http://www.w3.org/Graphics/SVG/1.1/DTD/svg11.dtd">
<svg xmlns="http://www.w3.org/2000/svg" version="1.1" width="1200px" height="1200px" style="shape-rendering:geometricPrecision; text-rendering:geometricPrecision; image-rendering:optimizeQuality; fill-rule:evenodd; clip-rule:evenodd" xmlns:xlink="http://www.w3.org/1999/xlink">
<g><path style="opacity:0.942" fill="#4b69b0" d="M 129.5,70.5 C 200.501,70.3333 271.501,70.5 342.5,71C 355.99,75.4865 364.156,84.6532 367,98.5C 367.667,170.833 367.667,243.167 367,315.5C 364.812,330.02 356.645,339.187 342.5,343C 271.833,343.667 201.167,343.667 130.5,343C 117.102,339.935 108.602,331.768 105,318.5C 104.333,244.5 104.333,170.5 105,96.5C 108.925,83.7443 117.092,75.0776 129.5,70.5 Z M 133.5,82.5 C 202.167,82.3333 270.834,82.5 339.5,83C 348.695,85.2003 353.862,91.0337 355,100.5C 355.987,173.211 355.654,245.877 354,318.5C 351.737,325.097 347.237,329.264 340.5,331C 319.836,331.5 299.169,331.667 278.5,331.5C 278.333,298.498 278.5,265.498 279,232.5C 288.75,233.486 298.584,233.819 308.5,233.5C 309.654,219.474 310.987,205.474 312.5,191.5C 301.833,191.5 291.167,191.5 280.5,191.5C 280.334,184.825 280.5,178.158 281,171.5C 281.833,170.5 282.667,169.5 283.5,168.5C 292.78,167.527 302.113,167.193 311.5,167.5C 311.5,155.5 311.5,143.5 311.5,131.5C 298.163,131.333 284.829,131.5 271.5,132C 254.439,134.441 243.606,143.941 239,160.5C 237.601,170.768 237.101,181.102 237.5,191.5C 230.833,191.5 224.167,191.5 217.5,191.5C 217.5,205.5 217.5,219.5 217.5,233.5C 224.09,233.811 230.59,233.478 237,232.5C 237.5,265.498 237.667,298.498 237.5,331.5C 202.165,331.667 166.832,331.5 131.5,331C 125.635,329.489 121.468,325.989 119,320.5C 117.343,245.89 117.009,171.224 118,96.5C 120.852,89.1419 126.019,84.4752 133.5,82.5 Z"/></g>
<g><path style="opacity:0.939" fill="#d33058" d="M 496.5,70.5 C 500.194,74.8604 504.194,78.8604 508.5,82.5C 500.5,82.5 492.5,82.5 484.5,82.5C 481.167,79.5 477.833,76.5 474.5,73.5C 481.546,70.8263 488.879,69.8263 496.5,70.5 Z"/></g>
<g><path style="opacity:0.942" fill="#ca3364" d="M 496.5,70.5 C 505.5,70.5 514.5,70.5 523.5,70.5C 527.5,74.5 531.5,78.5 535.5,82.5C 526.5,82.5 517.5,82.5 508.5,82.5C 504.194,78.8604 500.194,74.8604 496.5,70.5 Z"/></g>
<g><path style="opacity:0.942" fill="#c03671" d="M 523.5,70.5 C 531.833,70.5 540.167,70.5 548.5,70.5C 552.5,74.5 556.5,78.5 560.5,82.5C 552.167,82.5 543.833,82.5 535.5,82.5C 531.5,78.5 527.5,74.5 523.5,70.5 Z"/></g>
<g><path style="opacity:0.942" fill="#b63a7e" d="M 548.5,70.5 C 557.5,70.5 566.5,70.5 575.5,70.5C 579.5,74.5 583.5,78.5 587.5,82.5C 578.5,82.5 569.5,82.5 560.5,82.5C 556.5,78.5 552.5,74.5 548.5,70.5 Z"/></g>
<g><path style="opacity:0.939" fill="#a93e8e" d="M 575.5,70.5 C 588.833,70.5 602.167,70.5 615.5,70.5C 619.119,74.7852 623.119,78.7852 627.5,82.5C 614.167,82.5 600.833,82.5 587.5,82.5C 583.5,78.5 579.5,74.5 575.5,70.5 Z"/></g>
<g><path style="opacity:0.943" fill="#924594" d="M 615.5,70.5 C 633.833,70.5 652.167,70.5 670.5,70.5C 674.5,74.5 678.5,78.5 682.5,82.5C 664.167,82.5 645.833,82.5 627.5,82.5C 623.119,78.7852 619.119,74.7852 615.5,70.5 Z"/></g>
<g><path style="opacity:0.967" fill="#834998" d="M 670.5,70.5 C 703.683,66.0277 719.683,80.361 718.5,113.5C 714.792,109.79 710.792,106.457 706.5,103.5C 705.4,88.7389 697.4,81.7389 682.5,82.5C 678.5,78.5 674.5,74.5 670.5,70.5 Z"/></g>
<g><path style="opacity:0.926" fill="#e73f39" d="M 832.5,70.5 C 903.501,70.3333 974.501,70.5 1045.5,71C 1058.33,74.5 1066.5,82.6667 1070,95.5C 1070.67,169.833 1070.67,244.167 1070,318.5C 1066.47,331.36 1058.31,339.526 1045.5,343C 974.833,343.667 904.167,343.667 833.5,343C 821.106,339.606 812.939,331.773 809,319.5C 808.333,244.5 808.333,169.5 809,94.5C 812.992,82.6755 820.825,74.6755 832.5,70.5 Z M 836.5,82.5 C 905.167,82.3333 973.834,82.5 1042.5,83C 1051.4,84.9441 1056.56,90.4441 1058,99.5C 1058.67,171.167 1058.67,242.833 1058,314.5C 1056.72,323.114 1051.89,328.614 1043.5,331C 973.833,331.667 904.167,331.667 834.5,331C 827.333,329.167 822.833,324.667 821,317.5C 820.333,243.833 820.333,170.167 821,96.5C 823.852,89.1419 829.019,84.4752 836.5,82.5 Z M 918.5,178.5 C 935.936,187.052 953.269,195.885 970.5,205C 953.413,214.294 936.246,223.461 919,232.5C 918.5,214.503 918.333,196.503 918.5,178.5 Z"/></g>
<g><path style="opacity:0.908" fill="#e12b46" d="M 474.5,73.5 C 477.833,76.5 481.167,79.5 484.5,82.5C 475.788,84.8809 470.455,90.5476 468.5,99.5C 465.455,96.4534 462.122,93.7867 458.5,91.5C 461.356,83.3103 466.689,77.3103 474.5,73.5 Z"/></g>
<g><path style="opacity:0.918" fill="#e83b43" d="M 458.5,91.5 C 462.122,93.7867 465.455,96.4534 468.5,99.5C 468.5,107.833 468.5,116.167 468.5,124.5C 464.792,120.79 460.792,117.457 456.5,114.5C 456.026,106.671 456.692,99.0045 458.5,91.5 Z"/></g>
<g><path style="opacity:0.925" fill="#5855a1" d="M 668.5,234.5 C 663.219,231.22 658.219,227.553 653.5,223.5C 653.667,201.164 653.5,178.831 653,156.5C 650.8,147.305 644.966,142.138 635.5,141C 607.835,140.5 580.169,140.333 552.5,140.5C 546.833,135.833 541.167,131.167 535.5,126.5C 569.471,125.354 603.471,125.187 637.5,126C 654.105,128.605 664.272,138.105 668,154.5C 668.5,181.165 668.667,207.831 668.5,234.5 Z"/></g>
<g><path style="opacity:0.93" fill="#6d509d" d="M 535.5,126.5 C 541.167,131.167 546.833,135.833 552.5,140.5C 545.208,139.928 538.208,140.928 531.5,143.5C 527.833,140.167 524.167,136.833 520.5,133.5C 524.808,129.848 529.808,127.514 535.5,126.5 Z"/></g>
<g><path style="opacity:0.917" fill="#ec5446" d="M 456.5,114.5 C 460.792,117.457 464.792,120.79 468.5,124.5C 468.5,132.5 468.5,140.5 468.5,148.5C 466.692,147.093 464.692,145.926 462.5,145C 461.002,142.336 459.002,140.17 456.5,138.5C 456.5,130.5 456.5,122.5 456.5,114.5 Z"/></g>
<g><path style="opacity:0.913" fill="#994393" d="M 706.5,103.5 C 710.792,106.457 714.792,109.79 718.5,113.5C 718.5,129.833 718.5,146.167 718.5,162.5C 714.482,159.476 710.482,156.476 706.5,153.5C 706.5,136.833 706.5,120.167 706.5,103.5 Z"/></g>
<g><path style="opacity:0.979" fill="#e73f39" d="M 899.5,145.5 C 932.182,145.161 964.849,145.661 997.5,147C 1012.28,146.959 1021.11,154.126 1024,168.5C 1028.03,192.448 1028.36,216.448 1025,240.5C 1024.19,246.938 1022.19,252.938 1019,258.5C 1016.41,261.543 1013.24,263.71 1009.5,265C 999.919,266.786 990.253,267.786 980.5,268C 952.167,268.667 923.833,268.667 895.5,268C 887.805,267.643 880.138,266.976 872.5,266C 864.921,264.092 859.421,259.592 856,252.5C 853.735,243.981 852.402,235.315 852,226.5C 851.333,213.167 851.333,199.833 852,186.5C 852.197,175.97 854.531,165.97 859,156.5C 861.592,153.238 864.759,150.738 868.5,149C 878.901,147.259 889.235,146.092 899.5,145.5 Z M 918.5,178.5 C 918.333,196.503 918.5,214.503 919,232.5C 936.246,223.461 953.413,214.294 970.5,205C 953.269,195.885 935.936,187.052 918.5,178.5 Z"/></g>
<g><path style="opacity:0.931" fill="#8b4796" d="M 520.5,133.5 C 524.167,136.833 527.833,140.167 531.5,143.5C 525.886,147.083 522.553,152.083 521.5,158.5C 518.203,156.217 514.869,153.884 511.5,151.5C 510.575,150.643 509.908,149.643 509.5,148.5C 511.202,142.121 514.869,137.121 520.5,133.5 Z"/></g>
<g><path style="opacity:0.901" fill="#5856a2" d="M 630.5,152.5 C 637.796,152.65 642.13,156.317 643.5,163.5C 640.363,172.902 634.363,175.402 625.5,171C 620.358,162.917 622.025,156.75 630.5,152.5 Z"/></g>
<g><path style="opacity:0.91" fill="#ef6d49" d="M 456.5,138.5 C 459.002,140.17 461.002,142.336 462.5,145C 464.692,145.926 466.692,147.093 468.5,148.5C 468.5,156.833 468.5,165.167 468.5,173.5C 464.208,170.543 460.208,167.21 456.5,163.5C 456.5,155.167 456.5,146.833 456.5,138.5 Z"/></g>
<g><path style="opacity:0.914" fill="#a63f8f" d="M 509.5,148.5 C 509.908,149.643 510.575,150.643 511.5,151.5C 514.869,153.884 518.203,156.217 521.5,158.5C 521.5,165.5 521.5,172.5 521.5,179.5C 516.648,175.58 511.648,171.913 506.5,168.5C 506.07,161.48 507.07,154.814 509.5,148.5 Z"/></g>
<g><path style="opacity:0.92" fill="#6b509d" d="M 583.5,164.5 C 598.311,177.936 613.644,190.936 629.5,203.5C 630.376,210.599 629.376,217.599 626.5,224.5C 621.992,221.747 617.659,218.747 613.5,215.5C 617.358,199.382 611.691,187.882 596.5,181C 587.079,178.358 578.412,179.858 570.5,185.5C 566.644,182.4 562.977,179.067 559.5,175.5C 566.46,169.689 574.46,166.022 583.5,164.5 Z"/></g>
<g><path style="opacity:0.931" fill="#5855a1" d="M 583.5,164.5 C 609.932,164.61 625.265,177.61 629.5,203.5C 613.644,190.936 598.311,177.936 583.5,164.5 Z"/></g>
<g><path style="opacity:0.911" fill="#aa3e8d" d="M 706.5,153.5 C 710.482,156.476 714.482,159.476 718.5,162.5C 718.5,170.833 718.5,179.167 718.5,187.5C 714.482,184.476 710.482,181.476 706.5,178.5C 706.5,170.167 706.5,161.833 706.5,153.5 Z"/></g>
<g><path style="opacity:0.908" fill="#f3864c" d="M 456.5,163.5 C 460.208,167.21 464.208,170.543 468.5,173.5C 468.5,181.833 468.5,190.167 468.5,198.5C 464.792,194.79 460.792,191.457 456.5,188.5C 456.5,180.167 456.5,171.833 456.5,163.5 Z"/></g>
<g><path style="opacity:0.932" fill="#ba3979" d="M 506.5,168.5 C 511.648,171.913 516.648,175.58 521.5,179.5C 521.5,185.5 521.5,191.5 521.5,197.5C 516.648,193.58 511.648,189.913 506.5,186.5C 506.5,180.5 506.5,174.5 506.5,168.5 Z"/></g>
<g><path style="opacity:0.939" fill="#934594" d="M 559.5,175.5 C 562.977,179.067 566.644,182.4 570.5,185.5C 566.702,188.956 563.702,192.956 561.5,197.5C 557.603,194.391 553.936,191.057 550.5,187.5C 552.738,182.929 555.738,178.929 559.5,175.5 Z"/></g>
<g><path style="opacity:0.915" fill="#b43b81" d="M 706.5,178.5 C 710.482,181.476 714.482,184.476 718.5,187.5C 718.5,195.167 718.5,202.833 718.5,210.5C 714.208,207.543 710.208,204.21 706.5,200.5C 706.5,193.167 706.5,185.833 706.5,178.5 Z"/></g>
<g><path style="opacity:0.923" fill="#cd3260" d="M 506.5,186.5 C 511.648,189.913 516.648,193.58 521.5,197.5C 521.5,203.833 521.5,210.167 521.5,216.5C 516.5,212.5 511.5,208.5 506.5,204.5C 506.5,198.5 506.5,192.5 506.5,186.5 Z"/></g>
<g><path style="opacity:0.927" fill="#ab3e8b" d="M 550.5,187.5 C 553.936,191.057 557.603,194.391 561.5,197.5C 560.167,203.833 560.167,210.167 561.5,216.5C 556.167,212.167 550.833,207.833 545.5,203.5C 545.639,197.591 547.305,192.257 550.5,187.5 Z"/></g>
<g><path style="opacity:0.921" fill="#f69f4f" d="M 456.5,188.5 C 460.792,191.457 464.792,194.79 468.5,198.5C 468.5,206.5 468.5,214.5 468.5,222.5C 464.208,219.543 460.208,216.21 456.5,212.5C 456.5,204.5 456.5,196.5 456.5,188.5 Z"/></g>
<g><path style="opacity:0.968" fill="#b8397c" d="M 545.5,203.5 C 550.833,207.833 556.167,212.167 561.5,216.5C 565.599,226.92 573.265,232.92 584.5,234.5C 589.179,239.178 594.179,243.511 599.5,247.5C 596.456,249.011 593.122,249.678 589.5,249.5C 575.149,237.152 560.482,225.152 545.5,213.5C 545.5,210.167 545.5,206.833 545.5,203.5 Z"/></g>
<g><path style="opacity:0.925" fill="#da2d4f" d="M 506.5,204.5 C 511.5,208.5 516.5,212.5 521.5,216.5C 521.5,219.5 521.5,222.5 521.5,225.5C 516.648,221.58 511.648,217.913 506.5,214.5C 506.5,211.167 506.5,207.833 506.5,204.5 Z"/></g>
<g><path style="opacity:0.911" fill="#bd3775" d="M 706.5,200.5 C 710.208,204.21 714.208,207.543 718.5,210.5C 718.5,217.833 718.5,225.167 718.5,232.5C 714.482,229.476 710.482,226.476 706.5,223.5C 706.5,215.833 706.5,208.167 706.5,200.5 Z"/></g>
<g><path style="opacity:0.953" fill="#c3356e" d="M 545.5,213.5 C 560.482,225.152 575.149,237.152 589.5,249.5C 565.556,248.859 550.89,236.859 545.5,213.5 Z"/></g>
<g><path style="opacity:0.917" fill="#8b4796" d="M 613.5,215.5 C 617.659,218.747 621.992,221.747 626.5,224.5C 624.366,229.774 621.033,234.107 616.5,237.5C 613.149,234.152 609.482,231.152 605.5,228.5C 609.431,224.975 612.098,220.642 613.5,215.5 Z"/></g>
<g><path style="opacity:1" fill="#e53243" d="M 506.5,214.5 C 511.648,217.913 516.648,221.58 521.5,225.5C 521.5,230.5 521.5,235.5 521.5,240.5C 516.648,236.58 511.648,232.913 506.5,229.5C 506.5,224.5 506.5,219.5 506.5,214.5 Z"/></g>
<g><path style="opacity:0.913" fill="#fabd53" d="M 456.5,212.5 C 460.208,216.21 464.208,219.543 468.5,222.5C 468.333,253.502 468.5,284.502 469,315.5C 470.722,323.556 475.556,328.723 483.5,331C 514.832,331.5 546.165,331.667 577.5,331.5C 581.146,335.812 585.146,339.812 589.5,343.5C 553.498,343.667 517.498,343.5 481.5,343C 468.223,339.39 460.056,330.89 457,317.5C 456.5,282.502 456.333,247.502 456.5,212.5 Z"/></g>
<g><path style="opacity:0.921" fill="#a93e8b" d="M 605.5,228.5 C 609.482,231.152 613.149,234.152 616.5,237.5C 611.951,242.612 606.284,245.946 599.5,247.5C 594.179,243.511 589.179,239.178 584.5,234.5C 592.237,234.919 599.237,232.919 605.5,228.5 Z"/></g>
<g><path style="opacity:0.913" fill="#c73468" d="M 706.5,223.5 C 710.482,226.476 714.482,229.476 718.5,232.5C 718.5,240.167 718.5,247.833 718.5,255.5C 714.518,252.524 710.518,249.524 706.5,246.5C 706.5,238.833 706.5,231.167 706.5,223.5 Z"/></g>
<g><path style="opacity:0.924" fill="#6d4f9d" d="M 653.5,223.5 C 658.219,227.553 663.219,231.22 668.5,234.5C 668.5,241.167 668.5,247.833 668.5,254.5C 663.278,250.729 658.278,246.729 653.5,242.5C 653.5,236.167 653.5,229.833 653.5,223.5 Z"/></g>
<g><path style="opacity:1" fill="#ed5c47" d="M 506.5,229.5 C 511.648,232.913 516.648,236.58 521.5,240.5C 521.152,247.952 521.818,255.286 523.5,262.5C 518.099,257.759 512.433,253.426 506.5,249.5C 506.5,242.833 506.5,236.167 506.5,229.5 Z"/></g>
<g><path style="opacity:0.95" fill="#f1784a" d="M 506.5,249.5 C 512.433,253.426 518.099,257.759 523.5,262.5C 527.252,268.884 532.918,272.551 540.5,273.5C 545.979,278.735 551.646,283.735 557.5,288.5C 553.5,288.5 549.5,288.5 545.5,288.5C 533.24,277.699 520.573,267.365 507.5,257.5C 506.527,255.052 506.194,252.385 506.5,249.5 Z"/></g>
<g><path style="opacity:0.929" fill="#884897" d="M 653.5,242.5 C 658.278,246.729 663.278,250.729 668.5,254.5C 668.315,261.731 665.982,268.064 661.5,273.5C 657.61,270.729 653.943,267.729 650.5,264.5C 653.174,257.471 654.174,250.138 653.5,242.5 Z"/></g>
<g><path style="opacity:0.914" fill="#d0315c" d="M 706.5,246.5 C 710.518,249.524 714.518,252.524 718.5,255.5C 718.5,263.167 718.5,270.833 718.5,278.5C 715.047,274.706 711.047,271.706 706.5,269.5C 706.5,261.833 706.5,254.167 706.5,246.5 Z"/></g>
<g><path style="opacity:0.946" fill="#f4904e" d="M 507.5,257.5 C 520.573,267.365 533.24,277.699 545.5,288.5C 529.397,289.198 517.564,282.531 510,268.5C 508.438,264.986 507.605,261.319 507.5,257.5 Z"/></g>
<g><path style="opacity:0.919" fill="#9e4292" d="M 650.5,264.5 C 653.943,267.729 657.61,270.729 661.5,273.5C 659.522,277.478 656.522,280.478 652.5,282.5C 648.183,279.514 644.183,276.18 640.5,272.5C 644.643,270.772 647.976,268.106 650.5,264.5 Z"/></g>
<g><path style="opacity:0.932" fill="#eb5346" d="M 540.5,273.5 C 546.5,273.5 552.5,273.5 558.5,273.5C 564.509,278.179 570.175,283.179 575.5,288.5C 569.5,288.5 563.5,288.5 557.5,288.5C 551.646,283.735 545.979,278.735 540.5,273.5 Z"/></g>
<g><path style="opacity:0.932" fill="#e43144" d="M 558.5,273.5 C 567.5,273.5 576.5,273.5 585.5,273.5C 592.134,277.806 598.134,282.806 603.5,288.5C 594.167,288.5 584.833,288.5 575.5,288.5C 570.175,283.179 564.509,278.179 558.5,273.5 Z"/></g>
<g><path style="opacity:0.919" fill="#cd3260" d="M 585.5,273.5 C 593.5,273.5 601.5,273.5 609.5,273.5C 615.354,278.265 621.021,283.265 626.5,288.5C 618.833,288.5 611.167,288.5 603.5,288.5C 598.134,282.806 592.134,277.806 585.5,273.5 Z"/></g>
<g><path style="opacity:0.931" fill="#c03671" d="M 609.5,273.5 C 613.167,273.5 616.833,273.5 620.5,273.5C 625.018,278.179 630.018,282.346 635.5,286C 636.252,286.671 636.586,287.504 636.5,288.5C 633.167,288.5 629.833,288.5 626.5,288.5C 621.021,283.265 615.354,278.265 609.5,273.5 Z"/></g>
<g><path style="opacity:0.916" fill="#b43b81" d="M 640.5,272.5 C 644.183,276.18 648.183,279.514 652.5,282.5C 647.763,285.86 642.429,287.86 636.5,288.5C 636.586,287.504 636.252,286.671 635.5,286C 630.018,282.346 625.018,278.179 620.5,273.5C 627.211,273.713 633.877,273.38 640.5,272.5 Z"/></g>
<g><path style="opacity:0.915" fill="#da2e4f" d="M 706.5,269.5 C 711.047,271.706 715.047,274.706 718.5,278.5C 718.5,286.167 718.5,293.833 718.5,301.5C 714.5,298.5 710.5,295.5 706.5,292.5C 706.5,284.833 706.5,277.167 706.5,269.5 Z"/></g>
<g><path style="opacity:0.906" fill="#e63343" d="M 706.5,292.5 C 710.5,295.5 714.5,298.5 718.5,301.5C 719.831,311.822 717.998,321.489 713,330.5C 710.234,333.777 707.067,336.443 703.5,338.5C 700.849,335.52 697.849,332.853 694.5,330.5C 699.84,327.651 703.673,323.318 706,317.5C 706.5,309.173 706.666,300.84 706.5,292.5 Z"/></g>
<g><path style="opacity:0.911" fill="#f7a550" d="M 577.5,331.5 C 586.833,331.5 596.167,331.5 605.5,331.5C 609.194,335.86 613.194,339.86 617.5,343.5C 608.167,343.5 598.833,343.5 589.5,343.5C 585.146,339.812 581.146,335.812 577.5,331.5 Z"/></g>
<g><path style="opacity:0.914" fill="#f38c4d" d="M 605.5,331.5 C 614.5,331.5 623.5,331.5 632.5,331.5C 636.833,335.5 641.167,339.5 645.5,343.5C 636.167,343.5 626.833,343.5 617.5,343.5C 613.194,339.86 609.194,335.86 605.5,331.5 Z"/></g>
<g><path style="opacity:0.912" fill="#f0734a" d="M 632.5,331.5 C 641.833,331.5 651.167,331.5 660.5,331.5C 664.833,335.5 669.167,339.5 673.5,343.5C 664.167,343.5 654.833,343.5 645.5,343.5C 641.167,339.5 636.833,335.5 632.5,331.5 Z"/></g>
<g><path style="opacity:0.91" fill="#ec5946" d="M 694.5,330.5 C 697.849,332.853 700.849,335.52 703.5,338.5C 700.603,340.778 697.27,342.278 693.5,343C 686.842,343.5 680.175,343.666 673.5,343.5C 669.167,339.5 664.833,335.5 660.5,331.5C 671.871,331.768 683.205,331.434 694.5,330.5 Z"/></g>
<g><path style="opacity:0.906" fill="#37b1e1" d="M 130.5,467.5 C 200.834,467.333 271.167,467.5 341.5,468C 356.2,471.369 364.7,480.535 367,495.5C 367.667,567.833 367.667,640.167 367,712.5C 364.728,727.438 356.228,736.605 341.5,740C 271.5,740.667 201.5,740.667 131.5,740C 117.775,736.609 108.942,728.109 105,714.5C 104.333,640.5 104.333,566.5 105,492.5C 109.426,479.906 117.926,471.573 130.5,467.5 Z M 132.5,479.5 C 201.834,479.333 271.167,479.5 340.5,480C 349.318,482.488 354.151,488.321 355,497.5C 355.667,568.5 355.667,639.5 355,710.5C 354.049,720.115 348.883,725.948 339.5,728C 270.5,728.667 201.5,728.667 132.5,728C 125.402,725.901 120.568,721.401 118,714.5C 117.333,640.833 117.333,567.167 118,493.5C 120.416,486.229 125.249,481.563 132.5,479.5 Z"/></g>
<g><path style="opacity:0.913" fill="#e73f39" d="M 482.5,467.5 C 552.834,467.333 623.167,467.5 693.5,468C 706.333,471.5 714.5,479.667 718,492.5C 718.667,566.833 718.667,641.167 718,715.5C 714.398,728.768 705.898,736.935 692.5,740C 622.5,740.667 552.5,740.667 482.5,740C 468.667,736.833 460.167,728.333 457,714.5C 456.333,640.833 456.333,567.167 457,493.5C 460.348,479.653 468.848,470.986 482.5,467.5 Z M 483.5,479.5 C 552.834,479.333 622.167,479.5 691.5,480C 699,482.167 703.833,487 706,494.5C 706.667,567.5 706.667,640.5 706,713.5C 703.833,721 699,725.833 691.5,728C 622.5,728.667 553.5,728.667 484.5,728C 476,726.167 470.833,721 469,712.5C 468.333,640.167 468.333,567.833 469,495.5C 470.91,487.427 475.744,482.094 483.5,479.5 Z"/></g>
<g><path style="opacity:0.92" fill="#0677b6" d="M 833.5,467.5 C 903.834,467.333 974.167,467.5 1044.5,468C 1057.86,471.029 1066.36,479.195 1070,492.5C 1070.67,566.833 1070.67,641.167 1070,715.5C 1066.39,728.777 1057.89,736.944 1044.5,740C 974.5,740.667 904.5,740.667 834.5,740C 821.515,737.014 813.015,729.181 809,716.5C 808.333,641.5 808.333,566.5 809,491.5C 813.094,479.239 821.26,471.239 833.5,467.5 Z M 835.5,479.5 C 904.834,479.333 974.167,479.5 1043.5,480C 1051.86,482.36 1056.69,487.86 1058,496.5C 1058.67,568.167 1058.67,639.833 1058,711.5C 1056.58,720.585 1051.41,726.085 1042.5,728C 973.5,728.667 904.5,728.667 835.5,728C 828.402,725.901 823.568,721.401 821,714.5C 820.333,640.833 820.333,567.167 821,493.5C 823.446,486.222 828.279,481.555 835.5,479.5 Z"/></g>
<g><path style="opacity:0.975" fill="#37b1e1" d="M 309.5,552.5 C 315.987,551.274 322.32,549.774 328.5,548C 323.374,555.46 317.207,561.96 310,567.5C 308.935,614.17 287.768,648.004 246.5,669C 211.446,682.442 177.613,679.942 145,661.5C 144.312,660.668 144.479,660.002 145.5,659.5C 164.866,661.742 182.533,657.242 198.5,646C 181.98,644.078 170.647,635.411 164.5,620C 164.833,619.5 165.167,619 165.5,618.5C 170.111,619.61 174.778,619.777 179.5,619C 161.012,613.15 152.012,600.65 152.5,581.5C 156.443,584.036 160.776,585.369 165.5,585.5C 150.436,571.181 147.769,554.848 157.5,536.5C 177.234,560.036 202.568,573.036 233.5,575.5C 231.313,554.357 239.979,539.857 259.5,532C 269.404,529.556 279.07,530.223 288.5,534C 292.391,536.734 296.391,539.234 300.5,541.5C 308.333,539.668 315.667,536.668 322.5,532.5C 320.788,540.607 316.454,547.274 309.5,552.5 Z"/></g>
<g><path style="opacity:0.936" fill="#0677b6" d="M 883.5,533.5 C 898.999,535.155 904.832,543.488 901,558.5C 894.231,568.144 885.731,569.978 875.5,564C 867.862,555.639 867.529,546.972 874.5,538C 877.324,535.921 880.324,534.421 883.5,533.5 Z"/></g>
<g><path style="opacity:0.956" fill="#e73f39" d="M 541.5,543.5 C 555.504,541.85 568.837,544.016 581.5,550C 585.956,552.626 589.956,555.793 593.5,559.5C 587.833,565.833 581.833,571.833 575.5,577.5C 557.218,564.204 540.385,565.871 525,582.5C 513.95,601.258 516.45,618.091 532.5,633C 548.55,642.48 563.716,641.313 578,629.5C 581.041,625.791 583.208,621.624 584.5,617C 573.505,616.5 562.505,616.333 551.5,616.5C 551.5,608.167 551.5,599.833 551.5,591.5C 571.076,591.174 590.576,591.507 610,592.5C 614.232,615.128 608.399,634.628 592.5,651C 577.781,662.514 561.115,666.847 542.5,664C 511.256,656.214 494.256,636.214 491.5,604C 493.94,571.898 510.607,551.731 541.5,543.5 Z"/></g>
<g><path style="opacity:0.929" fill="#e73f39" d="M 644.5,570.5 C 650.5,570.5 656.5,570.5 662.5,570.5C 662.5,577.833 662.5,585.167 662.5,592.5C 669.5,592.5 676.5,592.5 683.5,592.5C 683.5,598.167 683.5,603.833 683.5,609.5C 676.5,609.5 669.5,609.5 662.5,609.5C 662.5,616.5 662.5,623.5 662.5,630.5C 656.5,630.5 650.5,630.5 644.5,630.5C 644.5,623.5 644.5,616.5 644.5,609.5C 637.5,609.5 630.5,609.5 623.5,609.5C 623.5,603.833 623.5,598.167 623.5,592.5C 630.5,592.5 637.5,592.5 644.5,592.5C 644.5,585.167 644.5,577.833 644.5,570.5 Z"/></g>
<g><path style="opacity:0.968" fill="#0677b6" d="M 869.5,580.5 C 880.5,580.5 891.5,580.5 902.5,580.5C 902.5,611.833 902.5,643.167 902.5,674.5C 891.5,674.5 880.5,674.5 869.5,674.5C 869.5,643.167 869.5,611.833 869.5,580.5 Z"/></g>
<g><path style="opacity:0.954" fill="#0677b6" d="M 947.5,590.5 C 954.855,583 963.855,579.666 974.5,580.5C 997.358,580.191 1008.86,591.524 1009,614.5C 1009.5,634.497 1009.67,654.497 1009.5,674.5C 999.833,674.5 990.167,674.5 980.5,674.5C 980.91,654.797 980.41,635.13 979,615.5C 977.526,607.764 972.86,604.097 965,604.5C 955.771,604.063 950.438,608.397 949,617.5C 948.5,636.497 948.333,655.497 948.5,674.5C 939.167,674.5 929.833,674.5 920.5,674.5C 920.5,643.167 920.5,611.833 920.5,580.5C 929.5,580.5 938.5,580.5 947.5,580.5C 947.5,583.833 947.5,587.167 947.5,590.5 Z"/></g>
<g><path style="opacity:0.911" fill="#fee100" d="M 129.5,864.5 C 200.501,864.333 271.501,864.5 342.5,865C 356.664,868.83 364.831,877.997 367,892.5C 367.667,964.833 367.667,1037.17 367,1109.5C 364.156,1123.35 355.99,1132.51 342.5,1137C 271.833,1137.67 201.167,1137.67 130.5,1137C 117.333,1133.17 108.833,1124.67 105,1111.5C 104.333,1037.5 104.333,963.5 105,889.5C 108.674,876.66 116.841,868.327 129.5,864.5 Z M 131.5,876.5 C 201.167,876.333 270.834,876.5 340.5,877C 348.886,879.386 353.72,884.886 355,893.5C 355.667,964.833 355.667,1036.17 355,1107.5C 353.916,1117.5 348.416,1123.34 338.5,1125C 270.167,1125.67 201.833,1125.67 133.5,1125C 125.845,1123.34 120.679,1118.84 118,1111.5C 117.333,1037.83 117.333,964.167 118,890.5C 120.017,883.318 124.517,878.652 131.5,876.5 Z"/></g>
<g><path style="opacity:0.919" fill="#2ba639" d="M 481.5,864.5 C 552.501,864.333 623.501,864.5 694.5,865C 706.773,868.939 714.606,877.106 718,889.5C 718.667,963.833 718.667,1038.17 718,1112.5C 714.509,1125.32 706.342,1133.49 693.5,1137C 622.833,1137.67 552.167,1137.67 481.5,1137C 468.195,1133.36 460.029,1124.86 457,1111.5C 456.333,1037.83 456.333,964.167 457,890.5C 460.25,877.086 468.417,868.419 481.5,864.5 Z M 482.5,876.5 C 552.501,876.333 622.501,876.5 692.5,877C 699.333,879.167 703.833,883.667 706,890.5C 706.667,963.833 706.667,1037.17 706,1110.5C 703.602,1118.9 698.102,1123.73 689.5,1125C 621.5,1125.67 553.5,1125.67 485.5,1125C 476.451,1123.62 470.951,1118.45 469,1109.5C 468.333,1037.17 468.333,964.833 469,892.5C 470.821,884.85 475.321,879.517 482.5,876.5 Z M 577.5,930.5 C 619.394,927.589 645.894,946.256 657,986.5C 660.948,1026.12 644.115,1052.28 606.5,1065C 586.515,1069.62 567.848,1066.46 550.5,1055.5C 542.227,1058.94 533.894,1061.27 525.5,1062.5C 528.167,1054.83 530.833,1047.17 533.5,1039.5C 519.109,1017.87 516.609,994.872 526,970.5C 536.945,949.044 554.112,935.711 577.5,930.5 Z"/></g>
<g><path style="opacity:0.925" fill="#e73f39" d="M 832.5,864.5 C 903.501,864.333 974.501,864.5 1045.5,865C 1058.32,868.491 1066.49,876.658 1070,889.5C 1070.67,963.833 1070.67,1038.17 1070,1112.5C 1065.83,1124.67 1057.67,1132.83 1045.5,1137C 974.833,1137.67 904.167,1137.67 833.5,1137C 821.097,1133.6 812.93,1125.76 809,1113.5C 808.333,1038.5 808.333,963.5 809,888.5C 812.34,875.994 820.174,867.994 832.5,864.5 Z M 834.5,876.5 C 904.167,876.333 973.834,876.5 1043.5,877C 1051.89,879.386 1056.72,884.886 1058,893.5C 1058.67,964.833 1058.67,1036.17 1058,1107.5C 1056.92,1117.5 1051.42,1123.34 1041.5,1125C 973.167,1125.67 904.833,1125.67 836.5,1125C 828.845,1123.34 823.679,1118.84 821,1111.5C 820.333,1037.83 820.333,964.167 821,890.5C 823.017,883.318 827.517,878.652 834.5,876.5 Z"/></g>
<g><path style="opacity:0.787" fill="#1c1b1c" d="M 224.5,912.5 C 249.155,908.594 268.655,916.594 283,936.5C 287.512,944.913 289.679,953.913 289.5,963.5C 288.6,970.489 288.434,977.489 289,984.5C 293.303,983.503 297.636,982.503 302,981.5C 309.427,982.25 312.761,986.25 312,993.5C 306.374,998.733 299.874,1002.57 292.5,1005C 290.556,1007.15 290.056,1009.65 291,1012.5C 299.08,1029.24 312.08,1040.24 330,1045.5C 331.378,1049.9 330.212,1053.4 326.5,1056C 319.994,1058.67 313.327,1060.84 306.5,1062.5C 305.648,1066.46 303.981,1069.96 301.5,1073C 296.154,1073.53 290.821,1073.36 285.5,1072.5C 281.804,1072.78 278.137,1073.28 274.5,1074C 266.037,1078.4 257.704,1083.07 249.5,1088C 242.223,1089.47 234.889,1089.8 227.5,1089C 224.097,1088.42 220.93,1087.26 218,1085.5C 217.667,1085.83 217.333,1086.17 217,1086.5C 209.27,1078.22 199.77,1073.55 188.5,1072.5C 182.813,1073.23 177.146,1073.73 171.5,1074C 170.584,1073.63 169.75,1073.13 169,1072.5C 168.06,1068.9 166.893,1065.4 165.5,1062C 159.332,1060.94 153.332,1059.28 147.5,1057C 140.917,1053.81 139.917,1049.48 144.5,1044C 161.525,1039.64 173.692,1029.47 181,1013.5C 182.15,1011.25 182.484,1008.91 182,1006.5C 175.851,1003.34 169.684,1000.17 163.5,997C 157.635,990.339 158.968,985.339 167.5,982C 172.715,982.401 177.882,983.235 183,984.5C 183.044,974.832 183.044,965.165 183,955.5C 187.887,932.448 201.72,918.114 224.5,912.5 Z"/></g>
<g><path style="opacity:0.948" fill="#e73f39" d="M 932.5,912.5 C 961.014,909.486 983.514,919.486 1000,942.5C 1011.89,970.279 1009.22,996.613 992,1021.5C 976.004,1039.96 956.837,1044.46 934.5,1035C 932.65,1032.98 930.65,1031.15 928.5,1029.5C 925.491,1040.53 922.324,1051.53 919,1062.5C 914.647,1072.56 908.814,1081.56 901.5,1089.5C 899.889,1086.78 899.056,1083.78 899,1080.5C 898.333,1072.17 898.333,1063.83 899,1055.5C 903.579,1035.35 908.079,1015.18 912.5,995C 907.828,982.22 908.994,970.054 916,958.5C 926.053,948.565 935.053,949.232 943,960.5C 944.584,965.456 944.584,970.456 943,975.5C 939.656,986.031 936.823,996.698 934.5,1007.5C 934.962,1014.13 938.296,1018.63 944.5,1021C 955.009,1023.16 963.509,1020 970,1011.5C 980.792,994.205 984.125,975.539 980,955.5C 972.668,938.65 959.668,930.317 941,930.5C 910.944,932.059 894.444,947.726 891.5,977.5C 891.528,981.236 892.028,984.903 893,988.5C 895.023,993.319 897.19,997.985 899.5,1002.5C 899.848,1015.71 894.848,1018.55 884.5,1011C 875.166,1001.68 870.499,990.347 870.5,977C 872.45,948.722 886.45,929.055 912.5,918C 919.142,915.581 925.809,913.748 932.5,912.5 Z"/></g>
<g><path style="opacity:0.924" fill="#2ba639" d="M 583.5,915.5 C 622.74,915.362 650.574,933.028 667,968.5C 679.541,1008.54 669.374,1041.37 636.5,1067C 608.026,1084.53 578.693,1086.03 548.5,1071.5C 533.636,1076.07 518.803,1080.73 504,1085.5C 503.5,1085.17 503,1084.83 502.5,1084.5C 507.697,1070.24 512.697,1055.91 517.5,1041.5C 499.711,1007.84 502.211,975.836 525,945.5C 540.831,928.169 560.331,918.169 583.5,915.5 Z M 577.5,930.5 C 554.112,935.711 536.945,949.044 526,970.5C 516.609,994.872 519.109,1017.87 533.5,1039.5C 530.833,1047.17 528.167,1054.83 525.5,1062.5C 533.894,1061.27 542.227,1058.94 550.5,1055.5C 567.848,1066.46 586.515,1069.62 606.5,1065C 644.115,1052.28 660.948,1026.12 657,986.5C 645.894,946.256 619.394,927.589 577.5,930.5 Z"/></g>
<g><path style="opacity:1" fill="#fde000" d="M 223.5,916.5 C 233.208,916.256 242.874,916.756 252.5,918C 268.359,923.193 278.859,933.693 284,949.5C 284.167,962.18 284.667,974.846 285.5,987.5C 286.939,988.063 288.439,988.397 290,988.5C 293.79,987.404 297.624,986.404 301.5,985.5C 306.862,985.668 308.862,988.168 307.5,993C 302.875,996.099 297.875,998.432 292.5,1000C 286.831,1002.82 284.998,1007.32 287,1013.5C 294.707,1030.71 307.541,1042.04 325.5,1047.5C 326.722,1049.91 326.055,1051.74 323.5,1053C 317.413,1055.52 311.08,1057.35 304.5,1058.5C 301.336,1061.48 300.336,1064.98 301.5,1069C 292.854,1068.58 284.187,1068.58 275.5,1069C 265.5,1074.33 255.5,1079.67 245.5,1085C 231.145,1087.24 218.478,1083.58 207.5,1074C 203.729,1071.78 199.729,1070.11 195.5,1069C 187.74,1068.44 180.073,1068.77 172.5,1070C 171.726,1067.59 171.226,1065.09 171,1062.5C 170.417,1061 169.584,1059.67 168.5,1058.5C 162.358,1057.63 156.358,1056.13 150.5,1054C 148.714,1053.22 147.214,1052.05 146,1050.5C 145.493,1049 145.993,1047.84 147.5,1047C 165.979,1041.86 178.812,1030.36 186,1012.5C 186.79,1009.37 186.457,1006.37 185,1003.5C 180.145,1000.43 174.978,997.933 169.5,996C 161.425,992.006 161.592,988.506 170,985.5C 172.422,985.75 174.589,986.584 176.5,988C 180.091,988.789 183.591,988.622 187,987.5C 187.333,974.833 187.667,962.167 188,949.5C 194.608,932.72 206.442,921.72 223.5,916.5 Z"/></g>
<g><path style="opacity:0.941" fill="#2ba639" d="M 558.5,960.5 C 561.518,960.335 564.518,960.502 567.5,961C 571.682,967.356 575.015,974.189 577.5,981.5C 576.302,985.199 574.135,988.199 571,990.5C 570.333,991.833 570.333,993.167 571,994.5C 577.967,1005.8 587.634,1013.8 600,1018.5C 603.536,1015.3 606.703,1011.8 609.5,1008C 610.167,1007.83 610.833,1007.67 611.5,1007.5C 618.101,1010.39 624.601,1013.39 631,1016.5C 631.732,1029.94 625.232,1036.94 611.5,1037.5C 591.632,1035.13 575.466,1026.13 563,1010.5C 556.792,1003.42 552.125,995.42 549,986.5C 546.892,975.747 550.059,967.081 558.5,960.5 Z"/></g>
</svg>
