<?xml version="1.0" encoding="UTF-8"?>
<!DOCTYPE svg PUBLIC "-//W3C//DTD SVG 1.1//EN" "http://www.w3.org/Graphics/SVG/1.1/DTD/svg11.dtd">
<svg xmlns="http://www.w3.org/2000/svg" version="1.1" width="315px" height="512px" style="shape-rendering:geometricPrecision; text-rendering:geometricPrecision; image-rendering:optimizeQuality; fill-rule:evenodd; clip-rule:evenodd" xmlns:xlink="http://www.w3.org/1999/xlink">
<g><path style="opacity:0.97" fill="#000000" d="M 74.5,-0.5 C 82.1667,-0.5 89.8333,-0.5 97.5,-0.5C 131.971,8.25673 150.305,30.4234 152.5,66C 151.504,94.6656 138.171,115.332 112.5,128C 108.284,129.684 103.951,130.851 99.5,131.5C 99.1676,143.851 99.501,156.185 100.5,168.5C 121.65,172.819 139.15,183.152 153,199.5C 162.889,191.944 173.056,184.778 183.5,178C 176.254,147.068 185.254,122.068 210.5,103C 234.611,89.402 258.944,89.0687 283.5,102C 299.944,113.07 310.277,128.236 314.5,147.5C 314.5,155.167 314.5,162.833 314.5,170.5C 307.359,202.137 287.692,220.637 255.5,226C 232.683,228.008 213.35,220.841 197.5,204.5C 187.107,211.357 177.107,218.69 167.5,226.5C 174.143,244.987 174.143,263.487 167.5,282C 177.017,290 187.017,297.5 197.5,304.5C 219.872,282.378 245.872,276.878 275.5,288C 296.187,298.512 309.187,315.012 314.5,337.5C 314.5,345.5 314.5,353.5 314.5,361.5C 303.883,399.923 278.55,418.09 238.5,416C 208.757,410.258 189.924,392.758 182,363.5C 179.728,352.496 180.228,341.663 183.5,331C 173.5,324 163.5,317 153.5,310C 146.144,316.736 138.144,323.07 129.5,329C 120.648,333.784 111.315,337.284 101.5,339.5C 100.334,352.487 100.167,365.487 101,378.5C 129.07,386.57 146.07,404.903 152,433.5C 154.475,476.288 134.975,502.288 93.5,511.5C 88.1667,511.5 82.8333,511.5 77.5,511.5C 50.5739,507.09 32.0739,492.09 22,466.5C 13.1018,434.193 21.9352,408.026 48.5,388C 55.3575,384.155 62.5242,380.988 70,378.5C 70.8327,365.487 70.666,352.487 69.5,339.5C 31.3484,329.834 8.01503,305.834 -0.5,267.5C -0.5,258.5 -0.5,249.5 -0.5,240.5C 8.27108,202.228 31.7711,178.228 70,168.5C 70.4999,156.171 70.6665,143.838 70.5,131.5C 37.5613,122.15 20.228,100.316 18.5,66C 21.1467,30.1433 39.8133,7.97662 74.5,-0.5 Z M 79.5,34.5 C 95.9201,33.2874 107.753,39.9541 115,54.5C 120.431,79.2876 110.598,93.9543 85.5,98.5C 66.2803,96.1135 55.6137,85.2802 53.5,66C 55.4669,49.8746 64.1335,39.3746 79.5,34.5 Z M 242.5,127.5 C 267.792,127.625 279.959,140.291 279,165.5C 272.104,186.53 257.938,194.364 236.5,189C 220.662,181.494 214.162,168.994 217,151.5C 221.217,138.778 229.717,130.778 242.5,127.5 Z M 79.5,209.5 C 107.899,209.096 124.733,222.763 130,250.5C 129.797,276.085 117.297,291.918 92.5,298C 66.4189,299.904 49.5855,288.404 42,263.5C 39.1145,234.586 51.6145,216.586 79.5,209.5 Z M 243.5,317.5 C 265.036,317.581 277.036,328.248 279.5,349.5C 277.921,368.913 267.421,379.579 248,381.5C 224.709,378.265 214.376,364.932 217,341.5C 221.332,328.326 230.165,320.326 243.5,317.5 Z M 80.5,412.5 C 102.377,412.256 114.71,422.922 117.5,444.5C 115.188,463.478 104.522,474.145 85.5,476.5C 66.2391,474.073 55.5725,463.239 53.5,444C 55.5639,427.443 64.5639,416.943 80.5,412.5 Z"/></g>
</svg>
