<?xml version="1.0" encoding="UTF-8"?>
<!DOCTYPE svg PUBLIC "-//W3C//DTD SVG 1.1//EN" "http://www.w3.org/Graphics/SVG/1.1/DTD/svg11.dtd">
<svg xmlns="http://www.w3.org/2000/svg" version="1.1" width="750px" height="750px" style="shape-rendering:geometricPrecision; text-rendering:geometricPrecision; image-rendering:optimizeQuality; fill-rule:evenodd; clip-rule:evenodd" xmlns:xlink="http://www.w3.org/1999/xlink">
<g><path style="opacity:0.995" fill="#4b3427" d="M 434.5,186.5 C 457.14,188.307 469.306,200.641 471,223.5C 471.333,242.167 471.667,260.833 472,279.5C 472.5,281.333 473.667,282.5 475.5,283C 479.688,284.631 484.021,285.464 488.5,285.5C 489.517,289.942 489.017,294.275 487,298.5C 478.389,297.928 469.556,297.261 460.5,296.5C 451.269,297.665 442.102,297.665 433,296.5C 432.333,293.167 432.333,289.833 433,286.5C 436.793,285.669 440.627,284.836 444.5,284C 445.667,283.5 446.5,282.667 447,281.5C 447.667,262.5 447.667,243.5 447,224.5C 442.745,209.612 432.911,203.779 417.5,207C 410.643,208.166 405.476,211.666 402,217.5C 401.096,238.863 401.429,260.197 403,281.5C 403.5,282.667 404.333,283.5 405.5,284C 409.7,284.876 413.867,285.709 418,286.5C 418.752,289.894 418.585,293.227 417.5,296.5C 398.945,296.592 380.445,296.592 362,296.5C 361.333,293.167 361.333,289.833 362,286.5C 365.759,285.51 369.593,284.677 373.5,284C 375.723,283.348 376.89,281.848 377,279.5C 378.363,258.181 378.697,236.848 378,215.5C 376.565,212.17 374.065,209.837 370.5,208.5C 369.914,208.709 369.414,209.043 369,209.5C 366.335,207.781 363.502,206.281 360.5,205C 358.424,203.116 358.09,200.949 359.5,198.5C 372.568,195.314 385.568,191.648 398.5,187.5C 399.442,187.608 400.275,187.941 401,188.5C 401.333,193.5 401.667,198.5 402,203.5C 411.623,195.274 422.456,189.607 434.5,186.5 Z"/></g>
<g><path style="opacity:0.996" fill="#4a3327" d="M 60.5,187.5 C 61.4959,187.414 62.3292,187.748 63,188.5C 63.4993,193.489 63.6659,198.489 63.5,203.5C 70.2315,199.962 76.8982,196.128 83.5,192C 93.7129,186.595 104.046,186.261 114.5,191C 119.675,195.009 124.342,199.509 128.5,204.5C 138.395,196.886 149.395,191.386 161.5,188C 182.605,187.428 195.105,197.594 199,218.5C 199.665,224.319 200.165,230.153 200.5,236C 199.472,250.49 199.306,264.99 200,279.5C 200.833,281.667 202.333,283.167 204.5,284C 208.754,285.314 213.087,286.147 217.5,286.5C 217.54,289.881 217.207,293.214 216.5,296.5C 198.5,296.5 180.5,296.5 162.5,296.5C 162.258,293.319 162.258,290.319 162.5,287.5C 166.882,286.154 171.216,284.654 175.5,283C 176.852,280.706 177.519,278.206 177.5,275.5C 177.086,266.481 177.086,257.315 177.5,248C 177.482,240.098 176.816,232.432 175.5,225C 175.665,223.883 175.998,222.716 176.5,221.5C 171.308,208.921 162.308,203.754 149.5,206C 142.13,207.517 135.797,210.85 130.5,216C 132.521,230.059 132.854,244.226 131.5,258.5C 131.404,266.227 131.904,273.893 133,281.5C 137.558,284.77 142.725,286.437 148.5,286.5C 148.74,289.579 148.407,292.579 147.5,295.5C 129.512,296.5 111.512,296.833 93.5,296.5C 92.1667,293.167 92.1667,289.833 93.5,286.5C 97.9387,286.246 102.272,285.412 106.5,284C 107.701,283.097 108.535,281.931 109,280.5C 110.503,263.527 110.837,246.527 110,229.5C 106.772,207.111 95.1051,199.778 75,207.5C 70.9948,209.334 67.3281,211.667 64,214.5C 63.3333,236.5 63.3333,258.5 64,280.5C 64.4652,281.931 65.2986,283.097 66.5,284C 70.728,285.412 75.0613,286.246 79.5,286.5C 79.7399,289.579 79.4066,292.579 78.5,295.5C 60.5123,296.5 42.5123,296.833 24.5,296.5C 23.1667,293.167 23.1667,289.833 24.5,286.5C 28.913,286.147 33.2464,285.314 37.5,284C 39.8329,282.757 40.4996,281.091 39.5,279C 40,278.5 40.5,278 41,277.5C 41.1667,275.167 41.3333,272.833 41.5,270.5C 41.553,251.309 41.3864,231.976 41,212.5C 35.8091,208.321 29.9758,205.321 23.5,203.5C 22.0084,200.233 23.0084,198.066 26.5,197C 38.3917,195.364 49.725,192.197 60.5,187.5 Z"/></g>
<g><path style="opacity:0.995" fill="#4b3427" d="M 286.5,187.5 C 315.142,186.338 333.642,199.338 342,226.5C 347.501,251.331 340.668,271.831 321.5,288C 298.501,302.94 275.834,303.273 253.5,289C 237.413,273.191 231.246,254.024 235,231.5C 238.491,215.015 247.658,202.848 262.5,195C 270.328,191.55 278.328,189.05 286.5,187.5 Z M 276.5,200.5 C 298.107,199.4 311.607,209.4 317,230.5C 321.372,247.454 319.705,263.454 312,278.5C 300.908,288.234 289.075,289.067 276.5,281C 263.765,268.977 257.765,254.143 258.5,236.5C 256.744,220.34 262.744,208.34 276.5,200.5 Z"/></g>
<g><path style="opacity:0.994" fill="#4b3427" d="M 545.5,187.5 C 558.026,187.465 570.026,189.965 581.5,195C 587.902,195.818 594.235,195.484 600.5,194C 602.641,192.692 604.641,191.192 606.5,189.5C 608.841,195.335 608.341,201.002 605,206.5C 599.337,210.316 593.17,211.483 586.5,210C 592.702,234.92 584.368,252.254 561.5,262C 557.218,263.276 553.051,264.776 549,266.5C 545.541,265.578 542.041,265.745 538.5,267C 533.8,269.191 532.8,272.358 535.5,276.5C 536.665,277.584 537.998,278.417 539.5,279C 552.495,280.289 565.495,281.622 578.5,283C 601.809,287.111 610.309,300.611 604,323.5C 592.705,345.768 574.538,358.268 549.5,361C 531.216,363.681 515.716,358.181 503,344.5C 499.575,338.865 497.408,333.032 496.5,327C 499.178,319.305 503.845,312.972 510.5,308C 514.693,304.64 519.026,301.473 523.5,298.5C 517.088,295.885 512.255,291.552 509,285.5C 507.85,283.246 507.516,280.913 508,278.5C 514.305,274.361 520.472,270.028 526.5,265.5C 505.846,256.193 498.013,240.526 503,218.5C 507.403,206.429 515.57,197.929 527.5,193C 533.531,190.832 539.531,188.999 545.5,187.5 Z M 536.5,199.5 C 556.927,198.259 566.927,207.926 566.5,228.5C 567.514,237.957 564.514,245.79 557.5,252C 540.495,257.039 529.661,250.873 525,233.5C 522.619,224.119 523.619,215.119 528,206.5C 530.441,203.546 533.275,201.213 536.5,199.5 Z M 535.5,301.5 C 542.841,301.334 550.174,301.5 557.5,302C 565.066,302.395 572.399,304.395 579.5,308C 587.773,316.399 588.606,325.566 582,335.5C 576.877,341.479 570.377,344.979 562.5,346C 549.508,348.361 537.508,346.028 526.5,339C 516.929,329.869 516.096,320.036 524,309.5C 527.464,306.195 531.297,303.528 535.5,301.5 Z"/></g>
<g><path style="opacity:0.995" fill="#4b3427" d="M 671.5,187.5 C 707.124,187.625 726.124,205.458 728.5,241C 727.731,269.856 713.897,288.356 687,296.5C 663.63,302.994 644.296,297.327 629,279.5C 620.708,265.416 617.208,249.916 618.5,233C 625.553,206.151 643.22,190.984 671.5,187.5 Z M 661.5,200.5 C 682.271,199.104 695.437,208.437 701,228.5C 703.886,241.093 704.219,253.76 702,266.5C 694.881,286.263 681.714,291.43 662.5,282C 653.287,275.094 647.454,265.928 645,254.5C 640.607,238.422 642.274,223.089 650,208.5C 653.482,205.161 657.315,202.494 661.5,200.5 Z"/></g>
<g><path style="opacity:0.999" fill="#5db04c" d="M 96.5,318.5 C 98.1171,319.589 98.9504,321.256 99,323.5C 99.9377,335.15 100.438,346.817 100.5,358.5C 100.667,388.502 100.5,418.502 100,448.5C 90.319,416.457 79.6523,384.79 68,353.5C 67.1841,354.823 66.0174,355.489 64.5,355.5C 68.1212,350.707 71.9545,346.04 76,341.5C 81,337.167 86,332.833 91,328.5C 93.5028,325.45 95.3361,322.117 96.5,318.5 Z"/></g>
<g><path style="opacity:1" fill="#55ad46" d="M 100.5,358.5 C 101.499,401.997 101.832,445.663 101.5,489.5C 101.667,503.504 101.5,517.504 101,531.5C 100.667,523.833 100.333,516.167 100,508.5C 84.6667,463.167 69.3333,417.833 54,372.5C 53.1841,373.823 52.0174,374.489 50.5,374.5C 54.4265,367.58 59.0932,361.247 64.5,355.5C 66.0174,355.489 67.1841,354.823 68,353.5C 79.6523,384.79 90.319,416.457 100,448.5C 100.5,418.502 100.667,388.502 100.5,358.5 Z"/></g>
<g><path style="opacity:1" fill="#449e35" d="M 170.5,435.5 C 170.674,437.861 171.007,440.194 171.5,442.5C 169.403,442.003 167.57,441.67 166,441.5C 164.551,442.614 163.217,443.614 162,444.5C 161.333,441.833 160.667,441.833 160,444.5C 159.333,441.833 158.667,441.833 158,444.5C 157.259,443.359 156.425,443.359 155.5,444.5C 154.808,443.975 154.308,443.308 154,442.5C 153.019,445.689 151.686,446.022 150,443.5C 148.551,444.614 147.217,445.614 146,446.5C 145.333,443.833 144.667,443.833 144,446.5C 142.122,445.443 140.455,445.443 139,446.5C 137,447.5 137,448.5 139,449.5C 140.333,449.5 141.667,449.5 143,449.5C 144.667,448.5 146.333,447.5 148,446.5C 149.309,448.891 150.309,448.891 151,446.5C 151.442,448.679 152.442,449.345 154,448.5C 156,449.5 156,450.5 154,451.5C 153.667,451.167 153.333,450.833 153,450.5C 151.899,452.394 150.566,453.061 149,452.5C 147.456,449.736 146.289,449.903 145.5,453C 146,453.5 146.5,454 147,454.5C 148.667,454.167 150.333,453.833 152,453.5C 152.903,454.701 154.069,455.535 155.5,456C 153.699,456.317 153.366,456.984 154.5,458C 153.251,459.824 152.085,459.657 151,457.5C 150,458.5 149,459.5 148,460.5C 146.221,459.521 144.555,459.854 143,461.5C 141.333,460.5 139.667,459.5 138,458.5C 135,460.167 132,461.833 129,463.5C 127.667,463.5 126.333,463.5 125,463.5C 124,462.5 123,461.5 122,460.5C 120.929,464.041 119.263,464.708 117,462.5C 116.016,464.795 115.183,464.461 114.5,461.5C 115.167,460.5 115.833,459.5 116.5,458.5C 115.753,458.264 114.92,457.93 114,457.5C 114.372,455.08 115.705,453.08 118,451.5C 120.178,452.893 121.178,454.56 121,456.5C 121.833,455.667 122.667,454.833 123.5,454C 121.834,453.003 120.334,451.503 119,449.5C 118.667,449.833 118.333,450.167 118,450.5C 117.667,449.5 117.333,448.5 117,447.5C 116.593,451.33 115.26,451.997 113,449.5C 112.683,451.301 112.016,451.634 111,450.5C 109.899,452.394 108.566,453.061 107,452.5C 106.374,450.009 105.541,450.009 104.5,452.5C 103.672,447.868 103.172,443.202 103,438.5C 102.5,455.497 102.333,472.497 102.5,489.5C 102.167,489.5 101.833,489.5 101.5,489.5C 101.832,445.663 101.499,401.997 100.5,358.5C 100.438,346.817 99.9377,335.15 99,323.5C 98.9504,321.256 98.1171,319.589 96.5,318.5C 96.3379,316.473 96.5045,314.473 97,312.5C 100.81,320.788 105.144,328.788 110,336.5C 131.652,356.819 148.652,380.486 161,407.5C 165.036,416.565 168.203,425.898 170.5,435.5 Z"/></g>
<g><path style="opacity:0.967" fill="#93785c" d="M 382.5,621.5 C 374.77,623.468 367.604,625.801 361,628.5C 359.062,627.14 357.396,627.473 356,629.5C 355.439,628.978 354.772,628.645 354,628.5C 347.583,629.91 341.083,630.743 334.5,631C 334,631.5 333.5,632 333,632.5C 291.372,632.069 249.705,631.069 208,629.5C 207.915,624.178 209.248,619.178 212,614.5C 213.171,613.107 214.671,612.273 216.5,612C 223.266,611.967 229.599,610.3 235.5,607C 238.087,604.01 239.587,600.843 240,597.5C 241.609,534.848 241.942,472.181 241,409.5C 240.854,399.348 235.688,393.515 225.5,392C 217.219,390.397 208.885,389.231 200.5,388.5C 201.442,382.281 203.775,376.614 207.5,371.5C 244.986,371.714 282.486,371.381 320,370.5C 350.995,367.526 380.495,372.693 408.5,386C 441.404,405.604 460.904,434.437 467,472.5C 475.536,543.468 447.369,593.135 382.5,621.5 Z M 296.5,390.5 C 315.394,389.723 333.727,391.556 351.5,396C 393.231,410.442 416.731,439.275 422,482.5C 425.425,511.526 421.592,538.693 410.5,564C 393.997,594.799 368.163,610.299 333,610.5C 318.626,610.693 305.126,607.526 292.5,601C 288.577,597.323 286.077,592.823 285,587.5C 283.368,526.522 283.035,465.522 284,404.5C 283.174,395.167 287.341,390.5 296.5,390.5 Z"/></g>
<g><path style="opacity:0.964" fill="#93795d" d="M 498.5,370.5 C 540.83,371.454 583.163,371.62 625.5,371C 643.654,371.616 659.988,377.283 674.5,388C 691.444,405.024 696.611,425.191 690,448.5C 682.259,465.789 670.426,477.622 654.5,484C 698.756,494.893 717.256,522.727 710,567.5C 704.812,585.017 694.645,598.851 679.5,609C 660.473,621.677 639.473,629.01 616.5,631C 606.359,631.978 596.192,632.478 586,632.5C 554.837,631.531 523.67,630.698 492.5,630C 491.872,627.63 491.539,625.297 491.5,623C 493.752,619.832 495.752,616.499 497.5,613C 506.505,612.434 515.172,610.434 523.5,607C 524.333,606.167 525.167,605.333 526,604.5C 527.849,597.409 529.015,590.242 529.5,583C 529.145,552.757 529.145,522.091 529.5,491C 529.496,461.453 528.829,432.12 527.5,403C 528.653,399.562 527.319,396.562 523.5,394C 513.411,390.946 503.077,389.112 492.5,388.5C 492.309,381.74 494.309,375.74 498.5,370.5 Z M 577.5,391.5 C 595.977,389.96 613.31,392.793 629.5,400C 646.364,411.397 652.698,427.064 648.5,447C 648.833,460.496 642.5,470.496 629.5,477C 625.012,478.811 620.346,479.811 615.5,480C 600.479,480.749 585.479,480.583 570.5,479.5C 570.563,451.826 571.063,424.16 572,396.5C 572.309,395.234 572.809,394.067 573.5,393C 575.058,392.79 576.391,392.29 577.5,391.5 Z M 574.5,500.5 C 581.456,500.79 588.456,500.79 595.5,500.5C 612.471,500.459 628.471,504.293 643.5,512C 654.381,518.262 661.548,527.429 665,539.5C 673.329,587.197 653.329,610.863 605,610.5C 580.175,610.672 568.841,598.338 571,573.5C 570.333,549.833 570.333,526.167 571,502.5C 572.302,501.915 573.469,501.249 574.5,500.5 Z"/></g>
<g><path style="opacity:1" fill="#4faa40" d="M 101.5,489.5 C 101.833,489.5 102.167,489.5 102.5,489.5C 102.639,510.177 102.305,530.844 101.5,551.5C 100.767,561.829 100.1,572.162 99.5,582.5C 99.5,583.167 99.1667,583.5 98.5,583.5C 79.7069,522.787 59.7069,462.454 38.5,402.5C 37.3507,404.925 36.684,404.925 36.5,402.5C 39.9317,391.975 44.5984,382.642 50.5,374.5C 52.0174,374.489 53.1841,373.823 54,372.5C 69.3333,417.833 84.6667,463.167 100,508.5C 100.333,516.167 100.667,523.833 101,531.5C 101.5,517.504 101.667,503.504 101.5,489.5 Z"/></g>
<g><path style="opacity:1" fill="#47a539" d="M 36.5,402.5 C 36.684,404.925 37.3507,404.925 38.5,402.5C 59.7069,462.454 79.7069,522.787 98.5,583.5C 98.2201,596.018 96.5535,608.352 93.5,620.5C 93.2528,621.713 92.5862,622.38 91.5,622.5C 78.1123,612.446 66.4456,600.779 56.5,587.5C 56.1667,586.5 55.5,585.833 54.5,585.5C 40.6247,568.416 30.958,549.083 25.5,527.5C 25.6716,526.508 25.3382,525.842 24.5,525.5C 23.8505,523.565 23.5172,521.565 23.5,519.5C 23.8294,516.772 23.1628,514.438 21.5,512.5C 21.5,511.167 21.5,509.833 21.5,508.5C 21.8016,505.941 21.4682,503.607 20.5,501.5C 20.5,489.833 20.5,478.167 20.5,466.5C 20.6992,460.441 21.3658,454.441 22.5,448.5C 23.404,447.791 23.7373,446.791 23.5,445.5C 24.0126,442.551 24.0126,439.718 23.5,437C 24.4158,436.722 25.0825,436.222 25.5,435.5C 26.9238,433.485 27.5905,431.152 27.5,428.5C 27.8541,426.459 27.8541,424.626 27.5,423C 29.3937,421.921 29.727,420.587 28.5,419C 31.2642,413.537 33.9309,408.037 36.5,402.5 Z"/></g>
<g><path style="opacity:0.804" fill="#3a6b2b" d="M 27.5,428.5 C 27.5905,431.152 26.9238,433.485 25.5,435.5C 25.4095,432.848 26.0762,430.515 27.5,428.5 Z"/></g>
<g><path style="opacity:1" fill="#429833" d="M 170.5,435.5 C 176.13,451.899 178.797,468.899 178.5,486.5C 178.616,506.469 175.283,525.803 168.5,544.5C 146.57,548.538 124.57,552.205 102.5,555.5C 102.768,553.901 102.434,552.568 101.5,551.5C 102.305,530.844 102.639,510.177 102.5,489.5C 102.333,472.497 102.5,455.497 103,438.5C 103.172,443.202 103.672,447.868 104.5,452.5C 105.541,450.009 106.374,450.009 107,452.5C 108.566,453.061 109.899,452.394 111,450.5C 112.016,451.634 112.683,451.301 113,449.5C 115.26,451.997 116.593,451.33 117,447.5C 117.333,448.5 117.667,449.5 118,450.5C 118.333,450.167 118.667,449.833 119,449.5C 120.334,451.503 121.834,453.003 123.5,454C 122.667,454.833 121.833,455.667 121,456.5C 121.178,454.56 120.178,452.893 118,451.5C 115.705,453.08 114.372,455.08 114,457.5C 114.92,457.93 115.753,458.264 116.5,458.5C 115.833,459.5 115.167,460.5 114.5,461.5C 115.183,464.461 116.016,464.795 117,462.5C 119.263,464.708 120.929,464.041 122,460.5C 123,461.5 124,462.5 125,463.5C 126.333,463.5 127.667,463.5 129,463.5C 132,461.833 135,460.167 138,458.5C 139.667,459.5 141.333,460.5 143,461.5C 144.555,459.854 146.221,459.521 148,460.5C 149,459.5 150,458.5 151,457.5C 152.085,459.657 153.251,459.824 154.5,458C 153.366,456.984 153.699,456.317 155.5,456C 154.069,455.535 152.903,454.701 152,453.5C 150.333,453.833 148.667,454.167 147,454.5C 146.5,454 146,453.5 145.5,453C 146.289,449.903 147.456,449.736 149,452.5C 150.566,453.061 151.899,452.394 153,450.5C 153.333,450.833 153.667,451.167 154,451.5C 156,450.5 156,449.5 154,448.5C 152.442,449.345 151.442,448.679 151,446.5C 150.309,448.891 149.309,448.891 148,446.5C 146.333,447.5 144.667,448.5 143,449.5C 141.667,449.5 140.333,449.5 139,449.5C 137,448.5 137,447.5 139,446.5C 140.455,445.443 142.122,445.443 144,446.5C 144.667,443.833 145.333,443.833 146,446.5C 147.217,445.614 148.551,444.614 150,443.5C 151.686,446.022 153.019,445.689 154,442.5C 154.308,443.308 154.808,443.975 155.5,444.5C 156.425,443.359 157.259,443.359 158,444.5C 158.667,441.833 159.333,441.833 160,444.5C 160.667,441.833 161.333,441.833 162,444.5C 163.217,443.614 164.551,442.614 166,441.5C 167.57,441.67 169.403,442.003 171.5,442.5C 171.007,440.194 170.674,437.861 170.5,435.5 Z"/></g>
<g><path style="opacity:0.106" fill="#27221a" d="M 23.5,445.5 C 23.7373,446.791 23.404,447.791 22.5,448.5C 21.1854,447.105 21.5188,446.105 23.5,445.5 Z"/></g>
<g><path style="opacity:0.588" fill="#648b52" d="M 20.5,466.5 C 20.5,478.167 20.5,489.833 20.5,501.5C 19.8067,497.435 19.1401,493.268 18.5,489C 19.5786,483.65 19.5786,477.65 18.5,471C 19.0989,469.378 19.7656,467.878 20.5,466.5 Z"/></g>
<g><path style="opacity:0.388" fill="#2a501e" d="M 20.5,501.5 C 21.4682,503.607 21.8016,505.941 21.5,508.5C 20.776,506.782 20.1094,504.948 19.5,503C 20.056,502.617 20.3893,502.117 20.5,501.5 Z"/></g>
<g><path style="opacity:0.596" fill="#2e4b20" d="M 21.5,512.5 C 23.1628,514.438 23.8294,516.772 23.5,519.5C 22.3882,517.401 21.7215,515.067 21.5,512.5 Z"/></g>
<g><path style="opacity:0.055" fill="#2d3020" d="M 24.5,525.5 C 25.3382,525.842 25.6716,526.508 25.5,527.5C 23.3023,527.591 22.9689,526.925 24.5,525.5 Z"/></g>
<g><path style="opacity:1" fill="#409232" d="M 168.5,544.5 C 157.369,575.274 138.703,600.274 112.5,619.5C 107.58,617.014 104.58,613.014 103.5,607.5C 101.584,599.143 100.251,590.81 99.5,582.5C 100.1,572.162 100.767,561.829 101.5,551.5C 102.434,552.568 102.768,553.901 102.5,555.5C 124.57,552.205 146.57,548.538 168.5,544.5 Z"/></g>
<g><path style="opacity:0.016" fill="#464530" d="M 54.5,585.5 C 55.5,585.833 56.1667,586.5 56.5,587.5C 55.1667,587.5 54.5,586.833 54.5,585.5 Z"/></g>
<g><path style="opacity:1" fill="#a5a885" d="M 99.5,582.5 C 100.251,590.81 101.584,599.143 103.5,607.5C 103.041,609.708 103.041,611.874 103.5,614C 101.875,614.853 101.542,615.853 102.5,617C 101.638,619.734 100.805,619.901 100,617.5C 99.342,619.108 99.842,620.275 101.5,621C 100.231,623.045 98.5641,625.379 96.5,628C 97.2797,629.073 97.113,630.24 96,631.5C 95.1932,627.551 94.6932,627.551 94.5,631.5C 93.8618,629.221 92.8618,626.888 91.5,624.5C 91.5,623.833 91.5,623.167 91.5,622.5C 92.5862,622.38 93.2528,621.713 93.5,620.5C 96.5535,608.352 98.2201,596.018 98.5,583.5C 99.1667,583.5 99.5,583.167 99.5,582.5 Z"/></g>
<g><path style="opacity:1" fill="#aeac94" d="M 103.5,607.5 C 104.58,613.014 107.58,617.014 112.5,619.5C 110.183,623.144 108.683,627.144 108,631.5C 107.5,641.828 107.334,652.161 107.5,662.5C 106.67,653.342 106.17,644.009 106,634.5C 104.578,637.289 103.078,640.456 101.5,644C 102.634,645.016 102.301,645.683 100.5,646C 100.833,646.333 101.167,646.667 101.5,647C 100.137,648.945 99.3034,651.112 99,653.5C 98.3659,647.866 97.8659,647.532 97.5,652.5C 97.1667,652.5 96.8333,652.5 96.5,652.5C 96.5,650.167 96.5,647.833 96.5,645.5C 96.6646,642.482 96.498,639.482 96,636.5C 95.7216,635.584 95.2216,634.918 94.5,634.5C 94.5,633.5 94.5,632.5 94.5,631.5C 94.6932,627.551 95.1932,627.551 96,631.5C 97.113,630.24 97.2797,629.073 96.5,628C 98.5641,625.379 100.231,623.045 101.5,621C 99.842,620.275 99.342,619.108 100,617.5C 100.805,619.901 101.638,619.734 102.5,617C 101.542,615.853 101.875,614.853 103.5,614C 103.041,611.874 103.041,609.708 103.5,607.5 Z"/></g>
<g><path style="opacity:0.016" fill="#73634e" d="M 382.5,621.5 C 383.833,622.167 383.833,622.167 382.5,621.5 Z"/></g>
<g><path style="opacity:0.016" fill="#73634e" d="M 91.5,624.5 C 90.8333,625.167 90.8333,625.167 91.5,624.5 Z"/></g>
<g><path style="opacity:0.61" fill="#675e47" d="M 94.5,634.5 C 95.2216,634.918 95.7216,635.584 96,636.5C 96.498,639.482 96.6646,642.482 96.5,645.5C 95.7326,644.828 95.0659,643.995 94.5,643C 95.523,640.226 95.523,637.393 94.5,634.5 Z"/></g>
<g><path style="opacity:0.996" fill="#d5d2bd" d="M 107.5,662.5 C 107.762,663.978 107.429,665.311 106.5,666.5C 103.966,666.926 101.633,666.259 99.5,664.5C 99.1583,663.662 98.4916,663.328 97.5,663.5C 97.5,659.833 97.5,656.167 97.5,652.5C 97.8659,647.532 98.3659,647.866 99,653.5C 99.3034,651.112 100.137,648.945 101.5,647C 101.167,646.667 100.833,646.333 100.5,646C 102.301,645.683 102.634,645.016 101.5,644C 103.078,640.456 104.578,637.289 106,634.5C 106.17,644.009 106.67,653.342 107.5,662.5 Z"/></g>
<g><path style="opacity:0.078" fill="#1c1d13" d="M 96.5,652.5 C 96.8333,652.5 97.1667,652.5 97.5,652.5C 97.5,656.167 97.5,659.833 97.5,663.5C 96.7948,660.772 96.1281,657.939 95.5,655C 96.2524,654.329 96.5858,653.496 96.5,652.5 Z"/></g>
<g><path style="opacity:0.016" fill="#73634e" d="M 99.5,664.5 C 98.8333,665.167 98.8333,665.167 99.5,664.5 Z"/></g>
</svg>
