<svg id="svg" version="1.1" xmlns="http://www.w3.org/2000/svg" xmlns:xlink="http://www.w3.org/1999/xlink" width="400" height="343.68" viewBox="0, 0, 400,343.68"><g id="svgg"><path id="path0" d="M175.561 22.252 C 175.606 22.369,177.565 26.008,179.915 30.339 C 182.264 34.670,184.126 38.271,184.052 38.341 C 183.977 38.411,177.396 40.817,169.426 43.689 C 157.318 48.051,155.016 48.930,155.426 49.031 C 155.863 49.139,193.365 52.515,194.012 52.504 C 194.183 52.501,196.447 56.110,200.503 62.849 C 205.213 70.677,206.760 73.124,206.851 72.891 C 207.635 70.878,214.343 54.926,214.445 54.831 C 214.521 54.760,222.008 53.942,231.083 53.011 C 240.158 52.081,247.790 51.266,248.043 51.201 C 248.419 51.105,246.094 50.184,235.337 46.167 C 228.096 43.462,222.170 41.207,222.169 41.155 C 222.168 41.103,223.730 37.316,225.640 32.739 C 227.550 28.162,229.069 24.398,229.015 24.376 C 228.961 24.353,223.090 26.242,215.969 28.572 L 203.022 32.810 189.251 27.424 C 181.677 24.463,175.516 22.135,175.561 22.252 M110.000 61.596 C 109.587 61.629,108.013 61.739,106.500 61.840 C 76.520 63.844,58.572 76.680,70.324 87.714 C 84.726 101.234,131.477 103.695,154.541 92.147 C 176.619 81.093,161.503 65.076,126.000 61.905 C 123.300 61.663,111.894 61.443,110.000 61.596 M186.500 107.344 C 161.612 111.177,141.113 114.337,140.946 114.365 C 140.688 114.409,204.243 140.882,204.610 140.883 C 204.719 140.883,231.698 101.492,232.182 100.625 C 232.398 100.239,237.399 99.503,186.500 107.344 " stroke="none" fill="#fbfbfb" fill-rule="evenodd"></path><path id="path1" d="M203.750 1.010 C 194.888 1.841,186.714 4.358,160.333 14.384 C 131.743 25.248,19.561 68.920,12.250 72.032 C -2.790 78.432,-3.842 84.463,8.750 92.081 C 15.722 96.299,28.339 101.748,98.667 130.916 C 150.334 152.345,163.776 158.025,174.500 162.961 C 193.733 171.812,205.160 171.085,228.417 159.529 C 242.454 152.554,254.126 147.375,308.667 123.917 C 379.055 93.643,388.070 89.453,395.167 83.715 C 404.022 76.554,400.836 71.631,383.118 65.098 C 375.440 62.266,357.212 55.166,306.583 35.283 C 229.590 5.047,226.917 4.040,218.661 2.165 C 213.852 1.074,207.952 0.617,203.750 1.010 M189.250 27.333 C 196.742 30.267,203.005 32.667,203.167 32.667 C 203.328 32.667,209.212 30.785,216.242 28.484 C 223.272 26.184,229.060 24.338,229.104 24.382 C 229.148 24.426,227.641 28.163,225.756 32.686 C 223.870 37.209,222.358 40.990,222.395 41.087 C 222.433 41.185,228.368 43.471,235.585 46.167 C 245.667 49.934,248.616 51.097,248.312 51.188 C 248.095 51.253,240.417 52.075,231.250 53.015 C 222.083 53.955,214.556 54.744,214.524 54.769 C 214.491 54.794,212.760 58.911,210.678 63.919 C 208.595 68.927,206.822 73.020,206.738 73.015 C 206.653 73.009,203.866 68.485,200.545 62.961 C 196.655 56.491,194.372 52.851,194.128 52.732 C 193.920 52.630,185.088 51.780,174.500 50.843 C 163.912 49.905,155.137 49.102,155.000 49.057 C 154.862 49.013,161.313 46.612,169.333 43.721 C 177.354 40.831,183.973 38.414,184.042 38.349 C 184.112 38.285,182.188 34.580,179.767 30.116 C 177.346 25.652,175.424 22.000,175.496 22.000 C 175.569 22.000,181.758 24.400,189.250 27.333 M318.887 67.802 C 332.529 73.194,343.673 77.676,343.651 77.761 C 343.630 77.847,331.418 82.727,316.514 88.606 C 284.352 101.294,283.696 101.548,283.352 101.452 C 282.966 101.345,229.800 80.322,229.500 80.159 C 229.292 80.045,229.305 80.002,229.583 79.899 C 229.767 79.831,243.229 74.512,259.500 68.080 C 275.771 61.647,289.193 56.348,289.328 56.305 C 289.462 56.261,290.587 56.625,291.828 57.113 C 293.068 57.600,305.245 62.411,318.887 67.802 M126.667 61.902 C 165.689 65.597,178.174 84.520,148.333 94.743 C 117.461 105.321,69.258 97.512,66.682 81.517 C 65.186 72.223,82.525 63.564,106.083 61.840 C 107.458 61.740,108.921 61.630,109.333 61.598 C 111.363 61.436,124.110 61.660,126.667 61.902 M230.940 102.625 C 230.076 103.885,223.842 113.017,217.088 122.917 C 208.756 135.130,204.719 140.913,204.529 140.904 C 204.223 140.890,141.001 114.707,140.780 114.503 C 140.705 114.434,141.718 114.212,143.030 114.010 C 189.079 106.916,231.839 100.359,232.131 100.348 C 232.466 100.335,232.322 100.609,230.940 102.625 M379.500 133.038 C 368.042 138.442,351.760 145.596,313.667 161.964 C 256.957 186.332,243.080 192.473,229.417 199.246 C 204.576 211.559,193.896 212.222,173.364 202.727 C 164.257 198.515,150.755 192.812,101.917 172.549 C 50.158 151.074,33.907 144.246,22.750 139.288 C 20.458 138.270,18.471 137.447,18.333 137.459 C 17.425 137.539,9.583 140.964,7.049 142.388 C -2.810 147.928,-2.294 153.251,8.750 159.911 C 15.596 164.039,28.409 169.599,88.917 194.698 C 146.005 218.380,165.583 226.620,172.583 229.913 C 184.133 235.346,191.443 237.147,199.941 236.654 C 208.582 236.153,215.385 233.861,230.417 226.389 C 242.697 220.284,257.280 213.835,311.750 190.417 C 381.383 160.481,389.968 156.423,396.527 150.342 C 403.701 143.691,400.193 139.311,382.333 132.619 L 381.250 132.213 379.500 133.038 M383.083 199.120 C 379.179 201.168,364.945 207.594,347.136 215.348 C 338.508 219.104,340.159 218.392,310.750 231.045 C 255.027 255.020,238.768 262.226,228.917 267.316 C 205.996 279.157,193.522 279.902,173.500 270.623 C 164.375 266.394,149.204 259.988,99.000 239.165 C 44.237 216.451,28.355 209.738,16.403 204.251 L 15.556 203.862 12.671 205.096 C -3.311 211.930,-4.066 218.057,10.083 226.091 C 17.400 230.246,31.046 236.109,98.500 264.082 C 148.291 284.731,163.628 291.202,173.246 295.620 C 193.686 305.009,205.861 304.412,228.083 292.931 C 238.580 287.508,255.240 280.117,311.333 255.999 C 373.115 229.435,383.735 224.599,391.719 219.391 C 403.946 211.414,402.563 205.988,386.695 199.682 C 383.736 198.506,384.134 198.568,383.083 199.120 " stroke="none" fill="#c4342c" fill-rule="evenodd"></path><path id="path2" d="M289.421 56.327 C 289.169 56.733,289.565 99.178,289.819 99.085 C 293.202 97.848,343.793 77.732,343.707 77.658 C 343.639 77.600,332.408 73.141,318.750 67.750 C 305.092 62.359,292.923 57.555,291.707 57.075 C 290.492 56.594,289.463 56.258,289.421 56.327 M399.872 77.769 C 399.691 79.422,397.289 82.275,394.083 84.644 C 386.501 90.246,377.000 94.614,305.750 125.249 C 256.108 146.593,242.094 152.817,228.750 159.446 C 207.155 170.175,195.761 171.571,180.000 165.418 C 177.695 164.518,176.747 164.103,171.250 161.586 C 162.971 157.795,144.468 150.007,96.417 130.084 C 42.365 107.674,23.155 99.522,15.083 95.572 C 6.396 91.320,1.626 87.710,0.340 84.417 C 0.015 83.584,0.015 83.597,0.049 103.917 L 0.083 124.250 0.566 125.234 C 2.112 128.382,9.056 133.211,17.083 136.720 C 17.817 137.040,20.292 138.127,22.583 139.134 C 35.240 144.697,53.360 152.309,99.833 171.583 C 150.812 192.727,165.291 198.846,174.167 202.999 C 183.651 207.436,189.485 208.914,197.500 208.909 C 207.351 208.902,214.511 206.699,229.833 198.957 C 238.037 194.812,250.945 188.987,276.083 178.085 C 285.675 173.926,290.424 171.879,318.250 159.914 C 351.778 145.497,367.993 138.371,378.159 133.587 C 379.819 132.806,381.265 132.167,381.372 132.167 C 381.706 132.167,387.801 128.860,390.259 127.345 C 395.009 124.417,398.098 121.640,399.267 119.246 L 399.917 117.917 399.962 101.667 C 400.003 86.707,399.967 76.902,399.872 77.769 M399.872 145.603 C 399.691 147.255,397.289 150.108,394.083 152.477 C 386.570 158.028,377.251 162.322,308.833 191.750 C 254.696 215.036,241.986 220.672,229.198 227.067 C 205.185 239.075,193.681 239.825,173.994 230.665 C 164.886 226.428,149.538 219.945,98.833 198.916 C 30.223 170.462,17.150 164.841,9.781 160.625 C 4.584 157.652,1.318 154.754,0.340 152.250 C 0.015 151.417,0.015 151.431,0.049 171.750 L 0.083 192.083 0.569 193.072 C 2.004 195.996,9.874 201.621,15.624 203.833 C 16.060 204.001,18.179 204.939,20.333 205.919 C 30.277 210.440,50.643 219.018,101.250 240.000 C 147.261 259.076,164.685 266.432,172.995 270.289 C 187.415 276.981,196.513 278.325,208.267 275.500 C 214.543 273.991,218.596 272.355,229.750 266.828 C 242.749 260.387,255.568 254.707,308.167 232.082 C 384.521 199.238,390.697 196.316,396.934 190.089 C 398.307 188.718,398.738 188.163,399.267 187.079 L 399.917 185.750 399.962 169.500 C 400.003 154.541,399.967 144.735,399.872 145.603 M399.874 210.976 C 399.698 212.665,396.899 215.924,393.667 218.204 C 386.008 223.605,374.642 228.858,316.833 253.713 C 287.611 266.277,284.236 267.732,273.833 272.251 C 249.749 282.713,237.477 288.267,229.357 292.380 C 208.076 303.157,196.340 304.751,180.833 298.969 C 178.620 298.144,177.644 297.720,170.169 294.336 C 161.462 290.396,145.467 283.663,100.667 265.082 C 21.028 232.053,12.520 228.321,5.651 223.401 C 2.862 221.403,0.898 219.217,0.237 217.378 C 0.046 216.845,0.017 219.844,0.048 237.167 L 0.083 257.583 0.667 258.659 C 1.377 259.970,3.396 262.025,5.339 263.417 C 12.323 268.417,20.985 272.224,98.417 304.334 C 148.701 325.186,164.242 331.745,173.333 335.955 C 193.785 345.426,204.933 344.781,229.031 332.733 C 238.609 327.945,249.570 322.978,273.450 312.606 C 284.266 307.909,288.098 306.256,315.917 294.295 C 386.498 263.949,395.049 259.709,398.880 253.160 C 400.076 251.116,400.006 252.587,399.958 230.497 C 399.935 219.544,399.897 210.760,399.874 210.976 " stroke="none" fill="#942424" fill-rule="evenodd"></path><path id="path3" d="M259.250 68.173 C 242.842 74.673,229.379 79.996,229.333 80.001 C 229.095 80.027,282.335 101.169,283.353 101.452 C 283.501 101.494,284.884 101.034,286.426 100.430 C 287.968 99.827,289.309 99.333,289.406 99.333 C 289.531 99.333,289.553 94.314,289.482 82.458 C 289.426 73.177,289.369 63.502,289.357 60.958 C 289.344 58.415,289.277 56.338,289.208 56.344 C 289.140 56.350,275.658 61.673,259.250 68.173 M396.994 82.125 L 396.083 83.083 397.042 82.172 C 397.569 81.671,398.000 81.240,398.000 81.214 C 398.000 81.090,397.841 81.235,396.994 82.125 M2.660 87.708 C 3.068 88.144,3.425 88.500,3.451 88.500 C 3.577 88.500,3.444 88.350,2.708 87.660 L 1.917 86.917 2.660 87.708 M12.833 94.416 C 12.833 94.527,15.520 95.869,15.594 95.795 C 15.627 95.762,15.019 95.420,14.244 95.035 C 13.468 94.651,12.833 94.372,12.833 94.416 M396.994 149.958 L 396.083 150.917 397.042 150.006 C 397.932 149.159,398.076 149.000,397.953 149.000 C 397.927 149.000,397.495 149.431,396.994 149.958 M2.583 155.500 C 2.941 155.867,3.272 156.167,3.318 156.167 C 3.363 156.167,3.108 155.867,2.750 155.500 C 2.392 155.133,2.062 154.833,2.016 154.833 C 1.970 154.833,2.225 155.133,2.583 155.500 M13.167 162.416 C 13.167 162.528,15.187 163.535,15.262 163.461 C 15.295 163.427,14.838 163.160,14.245 162.868 C 13.652 162.576,13.167 162.372,13.167 162.416 M195.125 168.954 C 195.423 168.991,195.910 168.991,196.208 168.954 C 196.506 168.917,196.262 168.887,195.667 168.887 C 195.071 168.887,194.827 168.917,195.125 168.954 M198.795 168.954 C 199.094 168.991,199.544 168.990,199.795 168.952 C 200.045 168.914,199.800 168.884,199.250 168.885 C 198.700 168.886,198.495 168.917,198.795 168.954 M173.000 202.583 C 173.229 202.714,173.492 202.822,173.583 202.822 C 173.675 202.822,173.563 202.714,173.333 202.583 C 173.104 202.452,172.842 202.345,172.750 202.345 C 172.658 202.345,172.771 202.452,173.000 202.583 M196.216 209.124 C 196.931 209.155,198.056 209.155,198.716 209.124 C 199.376 209.092,198.792 209.066,197.417 209.067 C 196.042 209.067,195.501 209.093,196.216 209.124 M399.116 212.585 C 398.963 212.905,398.873 213.167,398.915 213.167 C 399.029 213.167,399.535 212.146,399.459 212.070 C 399.423 212.034,399.268 212.266,399.116 212.585 M396.073 216.208 L 395.583 216.750 396.125 216.260 C 396.630 215.804,396.743 215.667,396.615 215.667 C 396.586 215.667,396.342 215.910,396.073 216.208 M2.583 220.833 C 3.220 221.475,3.779 222.000,3.824 222.000 C 3.870 222.000,3.387 221.475,2.750 220.833 C 2.113 220.192,1.555 219.667,1.509 219.667 C 1.463 219.667,1.947 220.192,2.583 220.833 M10.500 226.408 C 10.500 226.454,10.725 226.608,11.000 226.750 C 11.275 226.892,11.500 226.971,11.500 226.925 C 11.500 226.879,11.275 226.726,11.000 226.583 C 10.725 226.441,10.500 226.362,10.500 226.408 M193.042 236.615 C 193.202 236.657,193.465 236.657,193.625 236.615 C 193.785 236.573,193.654 236.539,193.333 236.539 C 193.012 236.539,192.881 236.573,193.042 236.615 M195.208 236.788 C 195.552 236.824,196.115 236.824,196.458 236.788 C 196.802 236.752,196.521 236.723,195.833 236.723 C 195.146 236.723,194.865 236.752,195.208 236.788 M198.625 236.787 C 198.923 236.824,199.410 236.824,199.708 236.787 C 200.006 236.750,199.762 236.720,199.167 236.720 C 198.571 236.720,198.327 236.750,198.625 236.787 M193.208 276.782 C 193.369 276.823,193.631 276.823,193.792 276.782 C 193.952 276.740,193.821 276.705,193.500 276.705 C 193.179 276.705,193.048 276.740,193.208 276.782 M196.201 276.957 C 196.816 276.989,197.866 276.989,198.534 276.957 C 199.203 276.926,198.700 276.899,197.417 276.899 C 196.133 276.899,195.586 276.925,196.201 276.957 M194.127 302.118 C 194.334 302.158,194.634 302.156,194.794 302.115 C 194.953 302.073,194.783 302.040,194.417 302.042 C 194.050 302.044,193.920 302.078,194.127 302.118 M200.294 302.118 C 200.501 302.158,200.801 302.156,200.960 302.115 C 201.120 302.073,200.950 302.040,200.583 302.042 C 200.217 302.044,200.086 302.078,200.294 302.118 " stroke="none" fill="#9e2c2c" fill-rule="evenodd"></path><path id="path4" d="M120.875 61.615 C 121.035 61.657,121.298 61.657,121.458 61.615 C 121.619 61.573,121.487 61.539,121.167 61.539 C 120.846 61.539,120.715 61.573,120.875 61.615 M69.917 87.500 C 70.275 87.867,70.605 88.167,70.651 88.167 C 70.697 88.167,70.441 87.867,70.083 87.500 C 69.725 87.133,69.395 86.833,69.349 86.833 C 69.303 86.833,69.559 87.133,69.917 87.500 M109.375 99.448 C 109.535 99.490,109.798 99.490,109.958 99.448 C 110.119 99.406,109.987 99.372,109.667 99.372 C 109.346 99.372,109.215 99.406,109.375 99.448 " stroke="none" fill="#e49494" fill-rule="evenodd"></path></g></svg>